<svg id="svg" version="1.1" xmlns="http://www.w3.org/2000/svg" xmlns:xlink="http://www.w3.org/1999/xlink" width="400" height="133.33333333333334" viewBox="0, 0, 400,133.33333333333334"><g id="svgg"><path id="path0" d="M30.833 11.250 L 30.833 16.667 67.167 16.667 L 103.500 16.667 103.500 11.250 L 103.500 5.833 67.167 5.833 L 30.833 5.833 30.833 11.250 M285.500 65.167 L 285.500 88.333 291.000 88.333 L 296.500 88.333 296.500 65.167 L 296.500 42.000 291.000 42.000 L 285.500 42.000 285.500 65.167 M264.083 53.993 C 262.153 54.216,260.253 54.780,258.000 55.798 C 253.789 57.702,250.697 61.547,249.060 66.917 C 248.278 69.482,248.672 75.743,249.776 78.292 C 250.866 80.808,251.846 82.335,253.327 83.823 C 255.229 85.735,258.737 88.000,259.795 88.000 C 259.883 88.000,260.322 88.142,260.769 88.316 C 266.702 90.622,275.616 88.760,279.793 84.343 C 280.927 83.144,281.007 82.881,280.396 82.360 C 280.133 82.135,278.867 80.960,277.583 79.749 C 274.051 76.414,273.962 76.333,273.830 76.333 C 273.762 76.333,273.454 76.616,273.145 76.962 C 269.986 80.496,264.247 80.324,261.411 76.609 C 259.430 74.015,259.316 69.623,261.156 66.750 C 263.670 62.826,269.640 62.384,273.037 65.871 L 273.840 66.696 274.462 66.160 C 274.804 65.865,275.908 64.854,276.917 63.914 C 277.925 62.974,279.223 61.763,279.802 61.224 C 281.110 60.004,281.091 59.916,279.105 58.058 C 277.683 56.728,274.806 55.051,273.417 54.743 C 273.142 54.682,272.449 54.492,271.878 54.322 C 270.677 53.964,266.031 53.768,264.083 53.993 M316.000 53.995 C 314.401 54.129,311.890 54.667,310.855 55.099 C 310.546 55.228,310.191 55.333,310.066 55.333 C 309.407 55.333,305.951 57.251,303.968 58.717 L 303.519 59.049 303.932 59.816 C 304.159 60.238,304.525 60.883,304.745 61.250 C 304.965 61.617,305.244 62.112,305.364 62.350 C 305.979 63.569,307.433 66.000,307.547 66.000 C 307.618 66.000,308.044 65.709,308.494 65.354 C 313.495 61.401,321.987 61.630,323.393 65.756 C 323.661 66.542,323.809 70.833,323.568 70.833 C 323.514 70.833,323.083 70.514,322.610 70.124 C 320.487 68.373,317.313 67.434,313.500 67.429 C 311.509 67.427,308.616 67.907,308.083 68.327 C 307.992 68.400,307.735 68.515,307.513 68.583 C 301.410 70.459,299.823 80.801,304.869 85.812 C 305.550 86.489,307.678 87.999,307.953 88.001 C 308.025 88.002,308.290 88.110,308.543 88.242 C 312.467 90.289,320.678 88.823,323.371 85.595 C 323.648 85.263,323.659 85.309,323.663 86.792 L 323.667 88.333 329.174 88.333 L 334.681 88.333 334.623 76.542 C 334.559 63.498,334.567 63.589,333.386 61.000 C 330.971 55.705,324.888 53.254,316.000 53.995 M337.928 55.123 C 337.984 55.376,338.176 56.071,338.356 56.667 C 338.823 58.218,339.281 59.752,339.648 61.000 C 339.824 61.596,340.134 62.646,340.337 63.333 C 340.541 64.021,340.841 65.033,341.003 65.583 C 341.166 66.133,341.467 67.146,341.673 67.833 C 341.878 68.521,342.186 69.552,342.357 70.125 C 342.527 70.698,342.809 71.635,342.982 72.208 C 343.155 72.781,343.500 73.962,343.748 74.833 C 343.996 75.704,344.297 76.717,344.416 77.083 C 344.536 77.450,344.836 78.462,345.083 79.333 C 345.330 80.204,345.630 81.217,345.748 81.583 C 345.866 81.950,346.130 82.850,346.334 83.583 C 346.538 84.317,346.840 85.329,347.004 85.833 C 347.169 86.337,347.395 87.106,347.507 87.542 L 347.710 88.333 353.582 88.333 L 359.455 88.333 359.705 87.625 C 359.842 87.235,360.126 86.317,360.335 85.583 C 360.545 84.850,360.845 83.837,361.003 83.333 C 361.336 82.269,361.848 80.575,362.338 78.917 C 362.887 77.058,363.359 75.488,363.667 74.500 C 363.824 73.996,364.107 73.058,364.297 72.417 C 364.487 71.775,364.835 70.634,365.071 69.881 C 365.307 69.128,365.504 68.378,365.509 68.214 C 365.519 67.870,365.800 68.592,366.301 70.250 C 366.495 70.892,366.964 72.429,367.342 73.667 C 368.004 75.828,368.266 76.694,369.032 79.250 C 369.224 79.892,369.510 80.829,369.667 81.333 C 369.824 81.837,370.121 82.813,370.328 83.500 C 370.534 84.188,370.843 85.200,371.012 85.750 C 371.182 86.300,371.424 87.087,371.550 87.500 L 371.778 88.250 377.641 88.294 L 383.505 88.338 383.657 87.960 C 383.741 87.753,384.010 86.871,384.255 86.000 C 384.500 85.129,384.798 84.117,384.917 83.750 C 385.036 83.383,385.337 82.371,385.585 81.500 C 385.833 80.629,386.178 79.448,386.351 78.875 C 386.662 77.849,386.926 76.962,387.655 74.500 C 387.858 73.813,388.160 72.800,388.325 72.250 C 388.640 71.204,389.145 69.500,389.685 67.667 C 389.860 67.071,390.148 66.096,390.325 65.500 C 390.502 64.904,390.811 63.854,391.012 63.167 C 392.078 59.524,392.575 57.857,392.997 56.509 C 393.182 55.919,393.333 55.262,393.333 55.051 L 393.333 54.667 387.753 54.667 L 382.173 54.667 382.080 55.125 C 382.029 55.377,381.844 56.108,381.669 56.750 C 381.494 57.392,381.190 58.554,380.995 59.333 C 380.799 60.112,380.500 61.275,380.330 61.917 C 379.837 63.775,379.395 65.474,379.007 67.000 C 378.623 68.514,378.230 69.990,377.676 72.000 C 377.487 72.688,377.333 73.376,377.333 73.531 C 377.335 74.818,376.964 74.728,376.512 73.333 C 375.736 70.939,373.987 65.477,373.629 64.333 C 373.442 63.737,373.160 62.875,373.002 62.417 C 372.844 61.958,372.543 61.021,372.333 60.333 C 372.123 59.646,371.819 58.708,371.656 58.250 C 371.494 57.792,371.176 56.817,370.948 56.083 L 370.535 54.750 365.601 54.706 C 361.354 54.668,360.667 54.696,360.667 54.906 C 360.667 55.041,360.217 56.523,359.667 58.200 C 359.117 59.878,358.506 61.775,358.308 62.417 C 358.111 63.058,357.819 63.958,357.661 64.417 C 357.502 64.875,357.202 65.813,356.994 66.500 C 356.786 67.188,356.486 68.125,356.327 68.583 C 355.723 70.327,354.693 73.606,354.585 74.126 C 354.451 74.775,354.233 74.701,354.085 73.956 C 353.986 73.454,353.839 72.885,352.990 69.708 C 351.907 65.660,351.468 63.998,350.994 62.167 C 350.793 61.387,350.498 60.262,350.338 59.667 C 350.023 58.488,349.446 56.262,349.216 55.333 L 349.071 54.750 343.448 54.706 L 337.826 54.662 337.928 55.123 M319.750 74.665 C 320.904 74.854,322.586 75.631,323.226 76.271 C 323.957 77.002,323.893 79.475,323.125 80.188 C 319.643 83.421,312.665 82.102,312.667 78.212 C 312.669 75.483,315.643 73.994,319.750 74.665 " stroke="none" fill="#6c8cfc" fill-rule="evenodd"></path><path id="path1" d="M136.833 65.167 L 136.833 88.333 142.917 88.333 L 149.000 88.333 149.000 74.554 L 149.000 60.775 149.574 61.596 C 149.890 62.047,150.208 62.492,150.282 62.583 C 150.416 62.749,151.598 64.480,151.917 64.976 C 152.008 65.119,152.174 65.336,152.286 65.457 C 152.397 65.579,152.620 65.901,152.780 66.173 C 152.941 66.444,153.131 66.667,153.203 66.667 C 153.275 66.667,153.333 66.743,153.333 66.836 C 153.333 66.972,154.338 68.471,154.952 69.250 C 155.088 69.422,156.289 71.184,156.583 71.643 C 156.675 71.786,156.841 72.002,156.952 72.124 C 157.064 72.246,157.286 72.568,157.447 72.839 C 157.607 73.111,157.797 73.333,157.869 73.333 C 157.941 73.333,158.000 73.410,158.000 73.503 C 158.000 73.639,159.005 75.137,159.619 75.917 C 159.754 76.089,160.956 77.851,161.250 78.310 C 161.342 78.452,161.508 78.669,161.619 78.791 C 161.731 78.912,161.953 79.234,162.113 79.506 C 162.274 79.778,162.464 80.000,162.536 80.000 C 162.608 80.000,162.667 80.076,162.667 80.169 C 162.667 80.305,163.672 81.804,164.285 82.583 C 164.421 82.756,165.622 84.518,165.917 84.976 C 166.008 85.119,166.174 85.336,166.286 85.457 C 166.397 85.579,166.620 85.901,166.780 86.173 C 166.941 86.444,167.131 86.667,167.203 86.667 C 167.275 86.667,167.333 86.741,167.333 86.831 C 167.333 86.922,167.540 87.294,167.792 87.658 L 168.250 88.321 174.125 88.327 L 180.000 88.333 180.000 65.167 L 180.000 42.000 173.918 42.000 L 167.835 42.000 167.793 55.042 L 167.750 68.083 167.000 67.020 C 166.587 66.435,165.966 65.535,165.620 65.020 C 165.273 64.505,164.917 64.058,164.828 64.028 C 164.739 63.997,164.667 63.902,164.667 63.817 C 164.667 63.731,164.348 63.220,163.958 62.679 C 163.569 62.139,163.153 61.559,163.035 61.390 C 162.201 60.198,161.654 59.412,161.013 58.484 C 160.607 57.897,160.232 57.379,160.179 57.333 C 160.126 57.288,160.008 57.127,159.917 56.978 C 159.695 56.615,158.458 54.794,158.290 54.583 C 158.108 54.354,156.322 51.861,155.915 51.267 C 155.732 51.001,155.471 50.617,155.333 50.414 C 155.196 50.211,154.746 49.575,154.333 49.001 C 153.921 48.427,153.300 47.535,152.953 47.020 C 152.606 46.505,152.250 46.058,152.161 46.028 C 152.073 45.997,152.000 45.902,152.000 45.817 C 152.000 45.692,150.969 44.163,150.381 43.417 C 150.309 43.325,150.063 42.969,149.833 42.626 L 149.417 42.002 143.125 42.001 L 136.833 42.000 136.833 65.167 M228.000 50.083 L 228.000 54.667 225.250 54.667 L 222.500 54.667 222.500 59.417 L 222.500 64.167 225.241 64.167 L 227.981 64.167 228.046 72.875 C 228.117 82.369,228.101 82.197,229.158 84.541 C 229.462 85.214,231.021 86.985,231.855 87.604 C 233.640 88.929,238.551 89.637,241.583 89.006 C 242.133 88.892,242.883 88.744,243.250 88.678 C 243.915 88.558,245.842 87.741,246.000 87.513 C 246.046 87.447,246.215 87.344,246.375 87.285 C 246.757 87.144,246.745 86.613,246.333 85.417 C 246.150 84.884,246.000 84.296,246.000 84.111 C 246.000 83.925,245.853 83.281,245.674 82.678 C 245.494 82.076,245.179 80.946,244.974 80.167 C 244.769 79.387,244.582 78.723,244.559 78.689 C 244.536 78.656,244.234 78.804,243.887 79.018 C 243.012 79.559,240.929 79.590,240.221 79.073 C 239.049 78.219,239.015 77.979,239.007 70.712 L 239.000 64.174 242.375 64.128 L 245.750 64.083 245.750 59.417 L 245.750 54.750 242.375 54.705 L 239.000 54.660 239.000 50.080 L 239.000 45.500 233.500 45.500 L 228.000 45.500 228.000 50.083 M64.750 46.601 C 64.567 46.647,63.950 46.795,63.379 46.932 C 62.809 47.068,62.071 47.293,61.739 47.432 C 61.407 47.571,61.052 47.656,60.949 47.622 C 60.031 47.316,54.000 52.086,54.000 53.118 C 54.000 53.237,53.940 53.333,53.867 53.333 C 53.729 53.333,52.951 54.786,52.929 55.083 C 52.922 55.175,52.678 55.814,52.386 56.504 C 49.858 62.476,51.306 69.073,56.274 74.215 C 60.938 79.043,68.988 80.117,74.988 76.712 C 75.407 76.474,75.938 76.182,76.167 76.063 C 76.396 75.944,76.750 75.675,76.954 75.465 C 77.158 75.255,77.799 74.596,78.378 74.000 C 82.799 69.457,84.394 62.948,82.418 57.519 C 82.198 56.913,81.839 55.928,81.622 55.332 C 80.676 52.735,77.985 49.811,75.252 48.412 C 74.670 48.114,74.100 47.812,73.985 47.741 C 73.870 47.669,73.582 47.594,73.346 47.572 C 73.110 47.550,72.279 47.328,71.500 47.078 C 70.115 46.634,65.841 46.332,64.750 46.601 M201.000 53.986 C 198.360 54.248,195.568 55.266,193.258 56.809 C 192.015 57.640,189.333 60.140,189.333 60.468 C 189.333 60.577,189.266 60.667,189.183 60.667 C 189.027 60.667,188.294 61.822,187.532 63.269 C 185.593 66.953,185.041 73.815,186.417 77.111 C 186.554 77.439,186.667 77.816,186.667 77.948 C 186.667 78.305,188.057 81.012,188.763 82.031 C 193.092 88.275,202.044 90.781,211.167 88.303 C 212.918 87.828,216.000 86.565,216.000 86.323 C 216.000 86.259,216.206 86.121,216.458 86.016 C 217.531 85.568,218.237 84.771,217.983 84.295 C 217.694 83.757,214.325 78.781,214.171 78.667 C 214.109 78.621,214.011 78.452,213.951 78.292 C 213.812 77.914,213.317 77.919,212.906 78.301 C 210.867 80.201,205.258 81.244,202.297 80.273 C 200.452 79.667,198.000 77.910,198.000 77.192 C 198.000 77.114,197.850 76.878,197.667 76.667 C 197.483 76.455,197.333 76.139,197.333 75.964 C 197.333 75.788,197.256 75.500,197.161 75.322 C 196.991 75.005,197.175 75.000,208.911 75.000 L 220.833 75.000 220.827 73.708 C 220.805 69.141,220.174 65.943,218.682 62.833 C 218.305 62.047,218.201 61.867,217.446 60.697 C 216.891 59.837,214.471 57.333,214.195 57.333 C 214.088 57.333,214.000 57.270,214.000 57.192 C 214.000 56.757,210.381 54.962,208.413 54.420 C 206.775 53.969,203.247 53.763,201.000 53.986 M205.338 62.561 C 207.942 63.106,210.300 65.536,210.332 67.708 C 210.333 67.777,207.296 67.833,203.583 67.833 C 199.871 67.833,196.833 67.812,196.833 67.785 C 196.833 67.759,196.965 67.365,197.126 66.910 C 198.351 63.445,201.526 61.763,205.338 62.561 " stroke="none" fill="#3c539c" fill-rule="evenodd"></path><path id="path2" d="M60.833 32.083 C 60.833 44.306,60.877 47.500,61.042 47.500 C 61.156 47.500,61.630 47.355,62.095 47.179 C 64.994 46.077,69.840 46.105,72.536 47.239 C 73.775 47.760,73.667 49.206,73.667 32.083 L 73.667 16.667 67.250 16.667 L 60.833 16.667 60.833 32.083 M50.667 56.671 C 49.612 57.490,47.813 58.890,46.667 59.781 C 45.521 60.673,43.308 62.377,41.750 63.569 C 40.192 64.760,38.879 65.779,38.833 65.832 C 38.787 65.886,38.037 66.469,37.167 67.128 C 35.374 68.485,32.887 70.402,30.845 72.000 C 30.084 72.596,29.301 73.195,29.106 73.331 C 28.910 73.468,27.877 74.255,26.810 75.081 C 25.742 75.907,24.304 77.013,23.614 77.538 C 22.391 78.468,22.362 78.507,22.490 79.038 C 22.563 79.338,22.789 80.371,22.992 81.333 C 23.195 82.296,23.500 83.683,23.670 84.417 C 23.839 85.150,24.138 86.500,24.335 87.417 C 24.531 88.333,24.802 89.515,24.938 90.043 C 25.073 90.570,25.252 91.395,25.334 91.876 C 25.416 92.357,25.719 93.763,26.006 95.000 C 26.672 97.867,27.161 100.068,27.321 100.917 C 27.464 101.673,28.510 106.368,29.011 108.500 C 29.194 109.279,29.376 110.104,29.417 110.333 C 29.458 110.563,29.608 111.275,29.752 111.917 C 29.896 112.558,30.165 113.758,30.350 114.583 C 30.534 115.408,30.723 116.271,30.769 116.500 C 31.063 117.978,31.169 118.158,32.093 118.749 C 32.595 119.070,33.037 119.333,33.075 119.333 C 33.112 119.333,33.595 119.633,34.147 120.000 C 34.699 120.367,35.192 120.667,35.244 120.667 C 35.295 120.667,35.710 120.929,36.167 121.250 C 36.623 121.571,37.036 121.833,37.085 121.833 C 37.134 121.833,37.491 122.035,37.879 122.281 C 39.761 123.475,40.269 123.788,40.500 123.892 C 40.637 123.954,41.067 124.210,41.455 124.461 C 43.611 125.855,46.329 127.500,46.474 127.500 C 46.614 127.500,49.229 124.480,49.969 123.464 C 50.247 123.082,50.188 123.005,47.111 119.760 C 45.812 118.390,44.563 117.070,44.333 116.827 C 44.104 116.584,42.904 115.312,41.667 114.001 C 39.600 111.812,39.408 111.555,39.311 110.850 C 39.072 109.115,38.671 105.852,38.582 104.917 C 38.530 104.367,38.380 103.092,38.248 102.083 C 38.117 101.075,37.967 99.800,37.916 99.250 C 37.865 98.700,37.713 97.350,37.579 96.250 C 36.912 90.767,36.799 89.794,36.650 88.250 C 36.562 87.333,36.419 86.139,36.333 85.595 C 36.151 84.453,36.240 84.276,37.138 83.987 C 37.475 83.879,37.825 83.732,37.917 83.661 C 38.008 83.591,39.696 82.822,41.667 81.953 C 43.637 81.084,45.775 80.131,46.417 79.835 C 47.058 79.539,47.883 79.161,48.250 78.997 C 48.617 78.832,50.529 77.969,52.500 77.078 C 54.471 76.188,56.297 75.384,56.557 75.291 L 57.032 75.123 55.877 73.937 C 51.039 68.966,49.661 61.500,52.526 55.792 C 52.962 54.924,52.838 54.983,50.667 56.671 M81.935 55.792 C 84.692 62.098,83.172 69.868,78.329 74.222 C 77.848 74.655,77.495 75.051,77.546 75.101 C 77.596 75.152,80.963 76.676,85.027 78.487 C 89.091 80.299,92.867 81.986,93.417 82.236 C 93.967 82.486,94.717 82.826,95.083 82.993 C 95.450 83.160,96.296 83.545,96.964 83.849 L 98.178 84.402 98.075 85.743 C 98.019 86.480,97.871 87.796,97.747 88.667 C 97.622 89.537,97.474 90.813,97.416 91.500 C 97.359 92.188,97.208 93.462,97.080 94.333 C 96.952 95.204,96.803 96.479,96.747 97.167 C 96.692 97.854,96.542 99.204,96.414 100.167 C 96.286 101.129,96.134 102.442,96.077 103.083 C 96.020 103.725,95.872 105.000,95.748 105.917 C 95.624 106.833,95.479 108.071,95.427 108.667 C 95.205 111.171,95.136 111.484,94.703 111.954 C 94.468 112.209,93.670 113.055,92.930 113.835 C 91.717 115.112,87.763 119.298,86.102 121.062 C 85.745 121.440,85.145 122.072,84.769 122.465 C 84.368 122.884,84.154 123.229,84.252 123.298 C 84.373 123.384,87.245 126.795,87.773 127.481 C 87.889 127.631,90.192 126.355,91.258 125.549 C 91.442 125.410,92.017 125.068,92.583 124.759 C 92.767 124.660,93.334 124.317,93.843 123.997 C 94.353 123.678,94.915 123.328,95.093 123.219 C 95.271 123.110,97.181 121.930,99.338 120.597 L 103.259 118.174 103.629 116.628 C 103.833 115.779,104.192 114.183,104.428 113.083 C 104.663 111.983,104.959 110.633,105.085 110.083 C 105.211 109.533,105.461 108.408,105.641 107.583 C 106.209 104.971,106.689 102.795,107.018 101.333 C 107.194 100.554,107.494 99.204,107.686 98.333 C 107.878 97.462,108.170 96.150,108.335 95.417 C 108.500 94.683,108.754 93.521,108.900 92.833 C 109.046 92.146,109.343 90.796,109.559 89.833 C 109.776 88.871,110.119 87.333,110.321 86.417 C 110.524 85.500,110.793 84.300,110.919 83.750 C 111.045 83.200,111.194 82.487,111.249 82.167 C 111.305 81.846,111.496 81.008,111.675 80.306 C 112.116 78.573,112.102 78.500,111.204 77.833 C 110.186 77.078,106.806 74.472,106.560 74.252 C 106.456 74.159,106.163 73.933,105.910 73.750 C 105.657 73.567,104.842 72.944,104.100 72.367 C 103.357 71.790,102.412 71.060,102.000 70.745 C 101.587 70.430,100.612 69.678,99.833 69.074 C 98.075 67.711,97.799 67.500,97.232 67.083 C 96.982 66.900,96.162 66.262,95.411 65.667 C 94.659 65.071,93.163 63.908,92.085 63.083 C 91.008 62.258,89.704 61.258,89.188 60.861 C 88.672 60.464,88.063 59.998,87.833 59.826 C 87.177 59.334,84.024 56.895,82.870 55.989 C 81.615 55.002,81.588 54.997,81.935 55.792 " stroke="none" fill="#748bdc" fill-rule="evenodd"></path><path id="path3" d="M51.050 62.500 C 51.050 63.004,51.081 63.210,51.119 62.958 C 51.158 62.706,51.158 62.294,51.119 62.042 C 51.081 61.790,51.050 61.996,51.050 62.500 M78.661 73.792 L 77.750 74.750 78.708 73.839 C 79.599 72.993,79.743 72.833,79.619 72.833 C 79.593 72.833,79.162 73.265,78.661 73.792 " stroke="none" fill="#657cca" fill-rule="evenodd"></path><path id="path4" d="M66.547 46.456 C 66.985 46.490,67.660 46.490,68.047 46.455 C 68.434 46.420,68.075 46.392,67.250 46.392 C 66.425 46.393,66.109 46.422,66.547 46.456 M83.212 61.667 C 83.212 62.079,83.245 62.248,83.284 62.042 C 83.324 61.835,83.324 61.498,83.284 61.292 C 83.245 61.085,83.212 61.254,83.212 61.667 M83.209 63.250 C 83.211 63.617,83.245 63.747,83.285 63.540 C 83.324 63.332,83.323 63.032,83.281 62.873 C 83.239 62.714,83.207 62.883,83.209 63.250 " stroke="none" fill="#5c6cbc" fill-rule="evenodd"></path></g></svg>